<?xml version="1.0" encoding="utf-8"?>
<!-- Generator: Adobe Illustrator 22.0.1, SVG Export Plug-In . SVG Version: 6.00 Build 0)  -->
<svg version="1.1" id="Layer_1" xmlns="http://www.w3.org/2000/svg" xmlns:xlink="http://www.w3.org/1999/xlink" x="0px" y="0px"
	 width="630px" height="174px" viewBox="0 0 630 174" enable-background="new 0 0 630 174" xml:space="preserve">
<g>
	<g>
		<g>
			<path fill="#E5B13A" d="M232.6,2.6h-47.3v122.8h47.3V2.6z M225,117.8h-32.1V10.2H225V117.8z M262.3,110.7
				c6.1,5.4,13.7,9.5,22.4,12.3c8.6,2.7,18.3,4.1,28.9,4.1l60.6,0.2V52.1h-59.1v31h18.4v9.7h-22.1c-7.7-0.6-12.9-3.3-15.9-8.2
				c-3.3-5.3-4.9-12.6-4.9-21.6c0-9.3,1.5-16.1,4.5-20.3c2-2.7,4.3-4.7,6.7-5.8c2.6-1.2,6.3-2,11-2.4h39.8V0.2h-40.8
				c-21.5,0-38.5,5.5-50.4,16.5c-12.1,11-18.2,26.7-18.2,46.8c0,10.1,1.7,19.3,4.9,27.1C251.3,98.5,256.1,105.3,262.3,110.7z
				 M266.4,22.2c10.5-9.6,25.8-14.5,45.3-14.5H345v19.2h-32.4l-0.3,0c-5.7,0.5-10.2,1.5-13.7,3.1c-3.6,1.7-6.8,4.4-9.7,8.2l-0.1,0.1
				c-4,5.6-5.9,13.7-5.9,24.7c0,10.5,2,19.1,6.1,25.6c4.3,7,11.7,11,21.9,11.7l30.1,0V75.5h-18.4V59.7h44v60l-53-0.2
				c-9.8,0-18.8-1.3-26.6-3.8c-7.7-2.4-14.4-6.1-19.7-10.8c-5.3-4.7-9.4-10.5-12.3-17.4c-2.9-7-4.3-15.1-4.3-24.2
				C250.7,45.6,255.9,31.8,266.4,22.2z M433.4,2.6h-47.3v122.8h47.3V2.6z M425.9,117.8h-32.1V10.2h32.1V117.8z M56.7,142.6
				l-8.4,30.7h11.2l1.6-5.5h11.1l1.9,5.5h11.3l-8.6-30.7H56.7z M63,161.1l3.7-12.1l4.3,12.1H63z M84.3,149.8H95v23.4h10.6v-23.4
				h10.9v-7.4H84.3V149.8z M145.2,146.1c-3,2.7-4.5,6.7-4.5,11.7c0,2.6,0.4,4.9,1.2,6.8c0.8,2,2,3.7,3.5,5s3.4,2.4,5.6,3.1
				c2.2,0.7,4.7,1,7.4,1h9.4v-7.1h-10c-2.4-0.2-4.1-1.1-5.1-2.7c-1-1.6-1.5-3.7-1.5-6.3c0-2.7,0.5-4.7,1.4-6
				c0.7-0.9,1.4-1.5,2.2-1.9c0.8-0.4,1.9-0.6,3.3-0.7h9.6V142H158C152.5,142,148.3,143.4,145.2,146.1z M188.9,142
				c-5.6,0-9.9,1.4-13,4.2c-3.1,2.8-4.7,6.7-4.7,11.7c0,2.5,0.4,4.8,1.3,6.8c0.9,2,2.1,3.6,3.6,5c1.6,1.3,3.5,2.4,5.7,3
				c2.2,0.7,4.7,1,7.4,1c5.6,0,9.9-1.4,12.9-4.1c2.9-2.7,4.4-6.7,4.4-12c0-4.9-1.5-8.8-4.6-11.5S194.6,142,188.9,142z M194.3,164.7
				c-1.2,1.3-3,2-5.3,2c-2.2,0-3.9-0.7-5.2-2c-1.3-1.3-1.9-3.6-1.9-6.7c0-3.1,0.6-5.3,1.9-6.7c1.3-1.4,3-2,5.1-2c2.2,0,4,0.7,5.3,2
				c1.3,1.3,2,3.4,2,6.3C196.1,161,195.5,163.4,194.3,164.7z M237.5,146.8c-1.3-1.3-2.9-2.4-4.9-3.1s-4.3-1.1-6.9-1.1h-15.6v30.7
				h15.6c1.9,0,4-0.3,6.3-0.8c1.8-0.4,3.3-1.1,4.5-2.1c1.2-1,2.2-2.1,2.9-3.4c0.7-1.3,1.2-2.8,1.5-4.3c0.3-1.6,0.4-3.2,0.4-4.8
				c0-2.3-0.3-4.3-1-6.2C239.8,149.7,238.9,148.1,237.5,146.8z M230.6,161.7c-0.2,1-0.6,1.9-1.1,2.6c-0.6,0.7-1.3,1.2-2.3,1.5
				c-1,0.3-2.3,0.5-3.9,0.5h-2.6v-16.8h2.7c1.6,0,2.8,0.2,3.8,0.5c1,0.3,1.8,0.9,2.3,1.6c0.6,0.7,0.9,1.6,1.2,2.7
				c0.2,1.1,0.3,2.3,0.3,3.8C230.9,159.4,230.8,160.6,230.6,161.7z M244.9,173.3h10.6v-30.7h-10.6V173.3z M282.3,159.5l-12.9-16.9
				h-9.9v30.7h10v-16.8l12.8,16.8h10v-30.7h-10V159.5z M315.2,163.3h4.9v3.3h-6.9c-2.4-0.2-4.1-1.1-5.1-2.7c-1-1.6-1.5-3.7-1.5-6.3
				c0-2.7,0.5-4.7,1.4-6c0.7-0.9,1.4-1.5,2.2-1.9c0.8-0.4,1.9-0.6,3.3-0.7h9.6v-7.1h-9.9c-5.5,0-9.7,1.4-12.8,4.1
				c-3,2.7-4.5,6.7-4.5,11.7c0,2.6,0.4,4.9,1.2,6.8c0.8,2,2,3.7,3.5,5c1.5,1.4,3.4,2.4,5.6,3.1c2.2,0.7,4.7,1,7.4,1l15.1,0v-16.7
				h-13.7V163.3z M365.6,150.1h17.7v-7.5H355v31h10.6v-12.2H382v-6.8h-16.4V150.1z M391.2,142.6l-8.4,30.7H394l1.6-5.5h11.1l1.9,5.5
				h11.3l-8.6-30.7H391.2z M397.4,161.1l3.7-12.1l4.3,12.1H397.4z M424.6,146.1c-3,2.7-4.5,6.7-4.5,11.7c0,2.6,0.4,4.9,1.2,6.8
				c0.8,2,2,3.7,3.5,5c1.5,1.4,3.4,2.4,5.6,3.1c2.2,0.7,4.7,1,7.4,1h9.4v-7.1h-10c-2.4-0.2-4.1-1.1-5.1-2.7c-1-1.6-1.5-3.7-1.5-6.3
				c0-2.7,0.5-4.7,1.4-6c0.7-0.9,1.4-1.5,2.2-1.9c0.8-0.4,1.9-0.6,3.3-0.7h9.6V142h-9.9C431.8,142,427.6,143.4,424.6,146.1z
				 M450.6,149.8h10.7v23.4h10.6v-23.4h10.9v-7.4h-32.2V149.8z M501.4,142c-5.6,0-9.9,1.4-13,4.2c-3.1,2.8-4.7,6.7-4.7,11.7
				c0,2.5,0.4,4.8,1.3,6.8c0.9,2,2.1,3.6,3.6,5c1.6,1.3,3.5,2.4,5.7,3c2.2,0.7,4.7,1,7.4,1c5.6,0,9.9-1.4,12.9-4.1
				c2.9-2.7,4.4-6.7,4.4-12c0-4.9-1.5-8.8-4.6-11.5S507.1,142,501.4,142z M506.8,164.7c-1.2,1.3-3,2-5.3,2c-2.2,0-3.9-0.7-5.2-2
				c-1.3-1.3-1.9-3.6-1.9-6.7c0-3.1,0.6-5.3,1.9-6.7c1.3-1.4,3-2,5.1-2c2.2,0,4,0.7,5.3,2c1.3,1.3,2,3.4,2,6.3
				C508.6,161,508,163.4,506.8,164.7z M548.5,165.2c-0.5-0.2-0.8-0.5-0.8-0.8c0-0.3,0-0.6-0.1-0.8l1.3-0.4c0.5-0.3,1-0.7,1.5-1.1
				c0.5-0.4,1-1,1.5-1.7c0.4-0.7,0.8-1.6,1.1-2.7c0.3-1.1,0.5-2.5,0.5-4.2c0-2-0.4-3.8-1.2-5.2c-0.8-1.4-1.9-2.5-3.2-3.4
				c-1.3-0.9-2.8-1.5-4.5-1.8c-1.7-0.4-3.4-0.5-5.1-0.5h-17.6v30.7h11.4v-10c1,1,1.9,2.1,2.9,3.1c1,1.1,2,2,3.1,3
				c1.1,0.9,2.3,1.7,3.7,2.4c1.3,0.7,2.8,1.2,4.5,1.6h9.6v-7.3c-2.6,0-4.6-0.1-5.9-0.3C549.9,165.7,549,165.4,548.5,165.2z
				 M543.4,156c-1.1,0.5-3,0.7-5.9,0.7h-4.2v-6.1h4.1c1.5,0,2.8,0.1,3.7,0.2c1,0.1,1.8,0.3,2.3,0.6c0.6,0.2,1,0.5,1.2,0.9
				c0.2,0.3,0.3,0.7,0.3,1.1C545,154.7,544.5,155.5,543.4,156z M572.1,152.9l-6.9-10.3h-11.7l13.3,17.8v12.8h10.6v-12.8l13.2-17.8
				H579L572.1,152.9z M496,79.8h40.6l-21.7-61.3L496,79.8z M525.9,72.2h-19.6l9.1-29.6L525.9,72.2z M581.3,91.8l-25-89.1h-81.4
				l-33.5,122.8h49.9l5.9-20.6h36.2l7.2,20.6H630V91.8H581.3z M622.4,117.8H546l-7.2-20.6h-47.3l-5.9,20.6h-34.3l29.4-107.6h69.9
				l25,89.1h46.8V117.8z M166.9,99.6c2.9-5.3,5-11.1,6.2-17.4c1.1-6.1,1.7-12.4,1.7-18.6c0-8.9-1.3-17.1-3.9-24.5l0,0
				c-2.6-7.5-6.6-14-11.9-19.4c-5.3-5.4-11.9-9.6-19.8-12.6c-7.8-2.9-17-4.4-27.3-4.4H0v33.6h102.7c5.4,0,9.8,0.6,13.1,1.7
				c3.1,1,5.3,2.6,7,4.7c1.7,2.2,2.9,5,3.6,8.4c0.8,3.7,1.1,8.2,1.1,13.4c0,5-0.4,9.3-1.1,13c-0.6,3.3-1.8,6-3.5,8
				c-1.7,2-4,3.5-7,4.6c-3.3,1.1-7.8,1.7-13.4,1.7h-6V46H49.4v79.4h62.5c7.4,0,15.7-1.1,24.7-3.3c7.3-1.8,13.5-4.6,18.4-8.6
				C159.9,109.6,163.9,104.9,166.9,99.6z M150.3,107.6c-4.1,3.2-9.3,5.7-15.5,7.1c-8.4,2-16.1,3-22.9,3H57V53.5h31.9v45.8h13.6
				c6.5,0,11.8-0.7,15.9-2.1c4.4-1.5,7.9-3.8,10.4-7c2.5-3,4.2-6.9,5.1-11.4c0.8-4.1,1.2-9,1.2-14.4c0-5.7-0.4-10.7-1.3-14.9
				c-0.9-4.5-2.6-8.4-5.1-11.5c-2.5-3.3-6.1-5.7-10.5-7.2c-4.2-1.4-9.3-2.1-15.6-2.1H7.6V10.2h104.3c9.4,0,17.7,1.3,24.6,3.9
				c6.8,2.6,12.6,6.2,17.1,10.8c4.5,4.6,7.9,10.2,10.1,16.6l0,0c2.3,6.6,3.5,14,3.5,22c0,5.8-0.5,11.6-1.6,17.2
				c-1,5.5-2.8,10.5-5.4,15.1C157.8,100.4,154.4,104.3,150.3,107.6z"/>
		</g>
	</g>
	<rect fill="none" width="630" height="174"/>
</g>
</svg>
